<svg xmlns="http://www.w3.org/2000/svg" width="520" height="520" viewBox="0 0 520 520"><path d="M94.8 267.4Q97.6 266.1 100.6 266.5" stroke="#5E5A44" stroke-opacity="0.32" stroke-width="0.65" fill="none" stroke-linecap="round"/><path d="M126.1 387.1Q123.5 394.7 123.7 402.8" stroke="#5E5A44" stroke-opacity="0.32" stroke-width="0.70" fill="none" stroke-linecap="round"/><path d="M186.4 256.9Q184.2 254.1 183.1 250.7" stroke="#5E5A44" stroke-opacity="0.25" stroke-width="0.54" fill="none" stroke-linecap="round"/><path d="M44.1 31.4Q41.9 33.6 40.0 36.1" stroke="#8A7250" stroke-opacity="0.22" stroke-width="1.04" fill="none" stroke-linecap="round"/><path d="M149.5 415.4Q155.5 412.9 160.0 408.2" stroke="#5E5A44" stroke-opacity="0.34" stroke-width="0.73" fill="none" stroke-linecap="round"/><path d="M417.3 255.8Q415.8 250.9 417.3 246.1" stroke="#8A7250" stroke-opacity="0.25" stroke-width="0.67" fill="none" stroke-linecap="round"/><path d="M213.7 15.6Q209.3 11.6 205.2 7.3" stroke="#8A7250" stroke-opacity="0.11" stroke-width="1.05" fill="none" stroke-linecap="round"/><path d="M82.6 455.3Q82.2 447.4 79.2 440.1" stroke="#9AA07A" stroke-opacity="0.11" stroke-width="1.17" fill="none" stroke-linecap="round"/><path d="M88.4 305.3Q85.5 301.3 81.5 298.5" stroke="#8A7250" stroke-opacity="0.28" stroke-width="1.07" fill="none" stroke-linecap="round"/><path d="M16.3 87.5Q19.9 87.7 21.7 84.5" stroke="#7C855C" stroke-opacity="0.33" stroke-width="1.09" fill="none" stroke-linecap="round"/><path d="M39.4 420.1Q42.4 413.8 45.7 407.6" stroke="#8A7250" stroke-opacity="0.16" stroke-width="1.03" fill="none" stroke-linecap="round"/><path d="M59.3 338.4Q54.6 340.6 52.4 345.3" stroke="#7C855C" stroke-opacity="0.13" stroke-width="1.08" fill="none" stroke-linecap="round"/><path d="M219.6 351.3Q223.8 353.6 228.6 354.2" stroke="#9AA07A" stroke-opacity="0.34" stroke-width="0.91" fill="none" stroke-linecap="round"/><path d="M62.1 80.7Q57.7 82.2 55.9 86.4" stroke="#8A7250" stroke-opacity="0.23" stroke-width="1.08" fill="none" stroke-linecap="round"/><path d="M191.3 483.6Q193.8 485.6 194.9 488.6" stroke="#7C855C" stroke-opacity="0.27" stroke-width="1.10" fill="none" stroke-linecap="round"/><path d="M282.4 394.3Q276.3 390.0 271.9 383.9" stroke="#5E5A44" stroke-opacity="0.12" stroke-width="0.75" fill="none" stroke-linecap="round"/><path d="M337.5 369.7Q330.8 367.3 324.8 363.5" stroke="#7C855C" stroke-opacity="0.17" stroke-width="1.19" fill="none" stroke-linecap="round"/><path d="M458.2 26.0Q454.1 26.6 451.0 29.3" stroke="#5E5A44" stroke-opacity="0.10" stroke-width="0.80" fill="none" stroke-linecap="round"/><path d="M198.7 494.1Q193.2 497.4 188.5 501.7" stroke="#5E5A44" stroke-opacity="0.27" stroke-width="0.76" fill="none" stroke-linecap="round"/><path d="M238.0 247.3Q240.0 245.4 242.6 246.1" stroke="#8A7250" stroke-opacity="0.19" stroke-width="0.56" fill="none" stroke-linecap="round"/><path d="M167.7 229.4Q166.0 223.6 166.3 217.6" stroke="#9AA07A" stroke-opacity="0.30" stroke-width="0.66" fill="none" stroke-linecap="round"/><path d="M406.2 97.7Q408.1 96.4 410.1 95.5" stroke="#9AA07A" stroke-opacity="0.14" stroke-width="0.70" fill="none" stroke-linecap="round"/><path d="M347.4 16.3Q348.7 18.8 351.5 18.4" stroke="#9AA07A" stroke-opacity="0.16" stroke-width="0.64" fill="none" stroke-linecap="round"/><path d="M200.6 493.9Q202.5 487.2 207.5 482.4" stroke="#5E5A44" stroke-opacity="0.36" stroke-width="0.80" fill="none" stroke-linecap="round"/><path d="M176.4 141.5Q171.0 139.2 165.2 138.4" stroke="#9AA07A" stroke-opacity="0.25" stroke-width="1.00" fill="none" stroke-linecap="round"/><path d="M435.0 494.1Q434.0 497.2 434.3 500.5" stroke="#5E5A44" stroke-opacity="0.35" stroke-width="1.10" fill="none" stroke-linecap="round"/><path d="M259.2 39.2Q260.7 43.9 261.9 48.7" stroke="#8A7250" stroke-opacity="0.28" stroke-width="0.54" fill="none" stroke-linecap="round"/><path d="M25.8 397.3Q33.6 395.9 41.5 396.6" stroke="#8A7250" stroke-opacity="0.23" stroke-width="1.18" fill="none" stroke-linecap="round"/><path d="M206.4 399.6Q208.3 393.3 206.6 386.9" stroke="#5E5A44" stroke-opacity="0.13" stroke-width="1.18" fill="none" stroke-linecap="round"/><path d="M163.2 114.8Q165.7 115.9 166.0 118.6" stroke="#5E5A44" stroke-opacity="0.33" stroke-width="0.54" fill="none" stroke-linecap="round"/><path d="M60.3 322.8Q62.2 317.3 63.2 311.7" stroke="#5E5A44" stroke-opacity="0.11" stroke-width="1.12" fill="none" stroke-linecap="round"/><path d="M18.5 418.7Q18.1 413.6 15.6 409.1" stroke="#9AA07A" stroke-opacity="0.20" stroke-width="1.10" fill="none" stroke-linecap="round"/><path d="M380.4 108.5Q377.4 105.6 374.3 102.9" stroke="#7C855C" stroke-opacity="0.12" stroke-width="0.51" fill="none" stroke-linecap="round"/><path d="M238.9 247.4Q243.3 242.0 249.8 239.5" stroke="#8A7250" stroke-opacity="0.23" stroke-width="0.66" fill="none" stroke-linecap="round"/><path d="M30.7 85.7Q35.5 82.4 40.9 79.9" stroke="#8A7250" stroke-opacity="0.22" stroke-width="0.87" fill="none" stroke-linecap="round"/><path d="M415.1 159.7Q412.0 155.5 407.2 153.4" stroke="#5E5A44" stroke-opacity="0.26" stroke-width="0.72" fill="none" stroke-linecap="round"/><path d="M358.0 109.7Q355.8 113.4 357.2 117.4" stroke="#8A7250" stroke-opacity="0.11" stroke-width="0.72" fill="none" stroke-linecap="round"/><path d="M163.9 495.1Q168.0 494.5 172.0 494.6" stroke="#5E5A44" stroke-opacity="0.15" stroke-width="0.95" fill="none" stroke-linecap="round"/><path d="M248.0 393.5Q240.5 391.0 232.9 388.7" stroke="#8A7250" stroke-opacity="0.32" stroke-width="1.18" fill="none" stroke-linecap="round"/><path d="M450.8 115.9Q454.2 120.8 454.6 126.8" stroke="#9AA07A" stroke-opacity="0.22" stroke-width="1.17" fill="none" stroke-linecap="round"/><path d="M424.7 348.1Q425.4 341.0 426.9 334.0" stroke="#7C855C" stroke-opacity="0.27" stroke-width="1.17" fill="none" stroke-linecap="round"/><path d="M229.4 44.2Q235.8 43.4 241.9 41.1" stroke="#5E5A44" stroke-opacity="0.36" stroke-width="0.60" fill="none" stroke-linecap="round"/><path d="M317.7 400.8Q322.0 401.0 326.2 401.7" stroke="#7C855C" stroke-opacity="0.23" stroke-width="0.84" fill="none" stroke-linecap="round"/><path d="M72.8 418.6Q66.0 420.3 59.1 421.7" stroke="#5E5A44" stroke-opacity="0.28" stroke-width="0.72" fill="none" stroke-linecap="round"/><path d="M29.1 275.7Q26.7 277.3 25.2 279.7" stroke="#9AA07A" stroke-opacity="0.13" stroke-width="0.69" fill="none" stroke-linecap="round"/><path d="M64.6 394.8Q69.8 400.8 73.0 408.0" stroke="#8A7250" stroke-opacity="0.15" stroke-width="0.76" fill="none" stroke-linecap="round"/><path d="M244.8 308.1Q243.1 305.8 245.4 304.1" stroke="#5E5A44" stroke-opacity="0.21" stroke-width="0.52" fill="none" stroke-linecap="round"/><path d="M114.9 425.8Q112.5 428.4 111.8 431.9" stroke="#7C855C" stroke-opacity="0.26" stroke-width="0.68" fill="none" stroke-linecap="round"/><path d="M55.9 156.3Q59.7 163.1 64.7 169.0" stroke="#9AA07A" stroke-opacity="0.22" stroke-width="0.71" fill="none" stroke-linecap="round"/><path d="M360.4 355.1Q357.3 354.4 355.5 351.7" stroke="#5E5A44" stroke-opacity="0.24" stroke-width="0.59" fill="none" stroke-linecap="round"/><path d="M388.2 55.6Q388.2 53.1 390.5 52.3" stroke="#9AA07A" stroke-opacity="0.18" stroke-width="0.75" fill="none" stroke-linecap="round"/><path d="M408.7 115.6Q405.7 114.7 404.2 112.0" stroke="#5E5A44" stroke-opacity="0.10" stroke-width="0.98" fill="none" stroke-linecap="round"/><path d="M134.2 369.0Q130.6 368.6 127.0 369.4" stroke="#9AA07A" stroke-opacity="0.21" stroke-width="1.04" fill="none" stroke-linecap="round"/><path d="M261.9 262.5Q261.1 266.7 263.5 270.3" stroke="#9AA07A" stroke-opacity="0.14" stroke-width="0.81" fill="none" stroke-linecap="round"/><path d="M347.1 126.5Q352.1 130.2 358.3 131.4" stroke="#9AA07A" stroke-opacity="0.18" stroke-width="0.62" fill="none" stroke-linecap="round"/><path d="M180.8 170.2Q176.3 173.1 173.1 177.3" stroke="#8A7250" stroke-opacity="0.21" stroke-width="0.79" fill="none" stroke-linecap="round"/><path d="M293.2 294.6Q296.1 301.8 296.4 309.6" stroke="#8A7250" stroke-opacity="0.24" stroke-width="0.72" fill="none" stroke-linecap="round"/><path d="M258.3 96.8Q255.2 101.2 250.0 102.5" stroke="#5E5A44" stroke-opacity="0.20" stroke-width="0.55" fill="none" stroke-linecap="round"/><path d="M332.9 415.0Q332.3 422.7 333.1 430.5" stroke="#7C855C" stroke-opacity="0.21" stroke-width="0.83" fill="none" stroke-linecap="round"/><path d="M104.6 91.9Q107.1 90.3 108.9 87.9" stroke="#8A7250" stroke-opacity="0.31" stroke-width="0.57" fill="none" stroke-linecap="round"/><path d="M393.2 163.4Q393.0 169.0 393.6 174.5" stroke="#8A7250" stroke-opacity="0.21" stroke-width="0.66" fill="none" stroke-linecap="round"/><path d="M348.2 143.9Q343.7 144.4 339.3 143.3" stroke="#9AA07A" stroke-opacity="0.18" stroke-width="0.94" fill="none" stroke-linecap="round"/><path d="M426.0 491.1Q427.1 497.0 429.0 502.8" stroke="#7C855C" stroke-opacity="0.19" stroke-width="1.15" fill="none" stroke-linecap="round"/><path d="M116.0 92.2Q118.2 94.5 118.5 97.7" stroke="#7C855C" stroke-opacity="0.24" stroke-width="0.96" fill="none" stroke-linecap="round"/><path d="M399.5 505.8Q405.3 503.4 411.1 501.0" stroke="#9AA07A" stroke-opacity="0.27" stroke-width="0.70" fill="none" stroke-linecap="round"/><path d="M432.3 469.0Q426.4 465.0 421.3 460.1" stroke="#9AA07A" stroke-opacity="0.18" stroke-width="0.84" fill="none" stroke-linecap="round"/><path d="M361.8 494.0Q365.6 491.0 367.2 486.4" stroke="#8A7250" stroke-opacity="0.23" stroke-width="0.53" fill="none" stroke-linecap="round"/><path d="M90.2 445.4Q91.8 444.1 93.7 443.6" stroke="#5E5A44" stroke-opacity="0.11" stroke-width="0.84" fill="none" stroke-linecap="round"/><path d="M410.3 402.4Q408.3 399.3 404.6 399.1" stroke="#7C855C" stroke-opacity="0.16" stroke-width="0.95" fill="none" stroke-linecap="round"/><path d="M380.5 108.2Q382.5 109.1 384.5 109.9" stroke="#8A7250" stroke-opacity="0.32" stroke-width="0.84" fill="none" stroke-linecap="round"/><path d="M185.3 273.4Q187.9 275.7 187.6 279.2" stroke="#9AA07A" stroke-opacity="0.14" stroke-width="0.68" fill="none" stroke-linecap="round"/><path d="M298.3 423.6Q296.4 420.0 295.1 416.2" stroke="#9AA07A" stroke-opacity="0.33" stroke-width="0.98" fill="none" stroke-linecap="round"/><path d="M194.6 34.4Q192.9 33.4 191.1 32.4" stroke="#9AA07A" stroke-opacity="0.22" stroke-width="0.93" fill="none" stroke-linecap="round"/><path d="M384.7 504.0Q381.4 501.1 381.1 496.6" stroke="#9AA07A" stroke-opacity="0.12" stroke-width="0.55" fill="none" stroke-linecap="round"/><path d="M141.8 142.0Q138.2 140.0 134.3 141.2" stroke="#9AA07A" stroke-opacity="0.13" stroke-width="0.98" fill="none" stroke-linecap="round"/><path d="M225.5 330.8Q224.5 327.1 227.3 324.5" stroke="#5E5A44" stroke-opacity="0.21" stroke-width="0.94" fill="none" stroke-linecap="round"/><path d="M76.8 257.7Q70.7 262.6 64.9 268.0" stroke="#7C855C" stroke-opacity="0.10" stroke-width="0.91" fill="none" stroke-linecap="round"/><path d="M246.0 256.5Q246.2 252.2 248.6 248.7" stroke="#9AA07A" stroke-opacity="0.16" stroke-width="0.77" fill="none" stroke-linecap="round"/><path d="M495.8 359.6Q490.9 361.6 485.7 360.6" stroke="#5E5A44" stroke-opacity="0.32" stroke-width="0.78" fill="none" stroke-linecap="round"/><path d="M183.3 433.5Q185.8 433.3 188.2 434.0" stroke="#9AA07A" stroke-opacity="0.21" stroke-width="0.83" fill="none" stroke-linecap="round"/><path d="M156.5 457.7Q154.5 457.0 152.8 455.6" stroke="#8A7250" stroke-opacity="0.32" stroke-width="1.14" fill="none" stroke-linecap="round"/><path d="M267.8 69.4Q267.8 63.5 264.1 59.0" stroke="#9AA07A" stroke-opacity="0.35" stroke-width="0.60" fill="none" stroke-linecap="round"/><path d="M217.3 374.8Q217.8 372.8 218.9 371.1" stroke="#9AA07A" stroke-opacity="0.25" stroke-width="0.73" fill="none" stroke-linecap="round"/><path d="M139.3 315.2Q136.7 317.9 133.1 319.1" stroke="#5E5A44" stroke-opacity="0.16" stroke-width="0.64" fill="none" stroke-linecap="round"/><path d="M36.8 374.2Q40.7 375.1 44.4 376.3" stroke="#5E5A44" stroke-opacity="0.20" stroke-width="1.12" fill="none" stroke-linecap="round"/><path d="M86.8 176.2Q80.2 178.9 75.2 184.0" stroke="#7C855C" stroke-opacity="0.24" stroke-width="1.02" fill="none" stroke-linecap="round"/><path d="M302.1 149.2Q295.8 152.1 290.3 156.2" stroke="#7C855C" stroke-opacity="0.30" stroke-width="0.90" fill="none" stroke-linecap="round"/><path d="M284.8 130.7Q285.2 127.9 287.9 127.1" stroke="#9AA07A" stroke-opacity="0.19" stroke-width="0.90" fill="none" stroke-linecap="round"/><path d="M333.1 186.3Q339.6 187.2 344.6 191.5" stroke="#5E5A44" stroke-opacity="0.12" stroke-width="0.59" fill="none" stroke-linecap="round"/><path d="M341.5 58.1Q338.6 55.0 337.1 51.0" stroke="#7C855C" stroke-opacity="0.19" stroke-width="1.02" fill="none" stroke-linecap="round"/><path d="M172.7 271.0Q174.6 276.9 172.8 282.9" stroke="#8A7250" stroke-opacity="0.21" stroke-width="1.06" fill="none" stroke-linecap="round"/><path d="M315.4 284.0Q316.7 279.6 316.0 275.0" stroke="#7C855C" stroke-opacity="0.13" stroke-width="0.52" fill="none" stroke-linecap="round"/><path d="M281.1 302.7Q286.2 298.5 288.7 292.5" stroke="#8A7250" stroke-opacity="0.21" stroke-width="0.66" fill="none" stroke-linecap="round"/><path d="M477.4 231.6Q478.5 235.7 479.7 239.7" stroke="#9AA07A" stroke-opacity="0.18" stroke-width="0.52" fill="none" stroke-linecap="round"/><path d="M192.0 261.4Q194.5 264.0 196.3 267.1" stroke="#7C855C" stroke-opacity="0.27" stroke-width="0.99" fill="none" stroke-linecap="round"/><path d="M300.5 108.8Q299.9 110.7 298.6 112.0" stroke="#9AA07A" stroke-opacity="0.16" stroke-width="1.04" fill="none" stroke-linecap="round"/><path d="M499.8 417.8Q496.8 414.2 492.5 412.3" stroke="#8A7250" stroke-opacity="0.35" stroke-width="0.74" fill="none" stroke-linecap="round"/><path d="M250.3 328.6Q253.4 331.5 253.3 335.7" stroke="#9AA07A" stroke-opacity="0.33" stroke-width="1.17" fill="none" stroke-linecap="round"/><path d="M113.3 348.6Q120.4 347.2 127.4 345.3" stroke="#8A7250" stroke-opacity="0.15" stroke-width="0.53" fill="none" stroke-linecap="round"/><path d="M381.4 87.8Q383.7 94.0 387.9 99.2" stroke="#9AA07A" stroke-opacity="0.19" stroke-width="0.57" fill="none" stroke-linecap="round"/><path d="M307.4 288.2Q301.3 286.1 295.6 283.4" stroke="#8A7250" stroke-opacity="0.29" stroke-width="0.68" fill="none" stroke-linecap="round"/><path d="M43.3 45.5Q44.0 47.3 43.5 49.2" stroke="#8A7250" stroke-opacity="0.29" stroke-width="0.95" fill="none" stroke-linecap="round"/><path d="M307.8 40.8Q308.0 44.5 307.7 48.3" stroke="#9AA07A" stroke-opacity="0.31" stroke-width="1.10" fill="none" stroke-linecap="round"/><path d="M323.4 188.7Q327.4 187.4 329.6 183.8" stroke="#5E5A44" stroke-opacity="0.19" stroke-width="0.50" fill="none" stroke-linecap="round"/><path d="M474.8 242.4Q475.6 248.7 478.4 254.4" stroke="#8A7250" stroke-opacity="0.17" stroke-width="1.05" fill="none" stroke-linecap="round"/><path d="M62.4 240.5Q68.1 238.4 73.5 235.5" stroke="#5E5A44" stroke-opacity="0.22" stroke-width="0.88" fill="none" stroke-linecap="round"/><path d="M354.4 190.9Q358.9 195.5 361.9 201.1" stroke="#5E5A44" stroke-opacity="0.26" stroke-width="1.16" fill="none" stroke-linecap="round"/><path d="M275.7 164.9Q281.3 159.6 287.3 154.9" stroke="#5E5A44" stroke-opacity="0.34" stroke-width="0.71" fill="none" stroke-linecap="round"/><path d="M417.4 220.9Q418.7 222.6 420.4 221.4" stroke="#7C855C" stroke-opacity="0.27" stroke-width="0.65" fill="none" stroke-linecap="round"/><path d="M126.6 107.5Q122.4 111.4 118.3 115.2" stroke="#7C855C" stroke-opacity="0.23" stroke-width="1.15" fill="none" stroke-linecap="round"/><path d="M431.2 318.7Q430.2 310.6 432.8 302.9" stroke="#9AA07A" stroke-opacity="0.26" stroke-width="0.84" fill="none" stroke-linecap="round"/><path d="M117.3 466.8Q123.3 467.6 129.2 468.9" stroke="#9AA07A" stroke-opacity="0.31" stroke-width="0.70" fill="none" stroke-linecap="round"/><path d="M351.4 125.0Q349.4 123.1 346.8 124.0" stroke="#9AA07A" stroke-opacity="0.17" stroke-width="1.09" fill="none" stroke-linecap="round"/><path d="M404.2 348.7Q407.6 343.1 410.7 337.3" stroke="#5E5A44" stroke-opacity="0.20" stroke-width="0.79" fill="none" stroke-linecap="round"/><path d="M415.5 56.4Q409.4 51.7 404.3 46.0" stroke="#5E5A44" stroke-opacity="0.11" stroke-width="1.06" fill="none" stroke-linecap="round"/><path d="M184.5 444.4Q187.1 451.0 188.6 457.9" stroke="#9AA07A" stroke-opacity="0.19" stroke-width="0.88" fill="none" stroke-linecap="round"/><path d="M77.0 229.1Q76.4 226.3 76.8 223.6" stroke="#7C855C" stroke-opacity="0.31" stroke-width="0.64" fill="none" stroke-linecap="round"/><path d="M337.5 15.7Q333.4 9.9 328.6 4.7" stroke="#5E5A44" stroke-opacity="0.33" stroke-width="0.96" fill="none" stroke-linecap="round"/><path d="M64.0 328.7Q60.5 330.2 58.3 333.3" stroke="#5E5A44" stroke-opacity="0.29" stroke-width="0.71" fill="none" stroke-linecap="round"/><path d="M176.7 80.4Q174.3 74.9 175.5 69.1" stroke="#5E5A44" stroke-opacity="0.31" stroke-width="1.00" fill="none" stroke-linecap="round"/><path d="M195.4 117.9Q200.0 118.1 204.2 119.7" stroke="#5E5A44" stroke-opacity="0.28" stroke-width="0.86" fill="none" stroke-linecap="round"/><path d="M213.7 310.7Q213.7 318.1 210.1 324.7" stroke="#8A7250" stroke-opacity="0.16" stroke-width="0.55" fill="none" stroke-linecap="round"/><path d="M206.4 445.7Q210.1 442.2 211.7 437.4" stroke="#8A7250" stroke-opacity="0.27" stroke-width="0.80" fill="none" stroke-linecap="round"/><path d="M234.0 161.8Q236.6 158.7 236.9 154.6" stroke="#8A7250" stroke-opacity="0.22" stroke-width="1.00" fill="none" stroke-linecap="round"/><path d="M347.4 73.1Q353.2 75.4 358.4 78.8" stroke="#9AA07A" stroke-opacity="0.30" stroke-width="1.00" fill="none" stroke-linecap="round"/><path d="M359.0 131.2Q360.1 128.9 362.3 127.4" stroke="#5E5A44" stroke-opacity="0.14" stroke-width="1.03" fill="none" stroke-linecap="round"/><path d="M471.5 107.2Q479.2 108.0 486.6 105.5" stroke="#9AA07A" stroke-opacity="0.15" stroke-width="0.91" fill="none" stroke-linecap="round"/><path d="M23.6 135.6Q21.2 138.7 19.4 142.0" stroke="#7C855C" stroke-opacity="0.19" stroke-width="0.85" fill="none" stroke-linecap="round"/><path d="M443.6 57.6Q441.4 63.2 438.4 68.5" stroke="#8A7250" stroke-opacity="0.14" stroke-width="0.57" fill="none" stroke-linecap="round"/><path d="M186.7 265.3Q179.7 268.6 172.7 271.9" stroke="#9AA07A" stroke-opacity="0.26" stroke-width="0.56" fill="none" stroke-linecap="round"/><path d="M438.3 475.0Q443.2 474.5 447.7 476.6" stroke="#7C855C" stroke-opacity="0.35" stroke-width="1.16" fill="none" stroke-linecap="round"/><path d="M234.7 18.8Q235.4 16.0 238.2 16.6" stroke="#7C855C" stroke-opacity="0.18" stroke-width="1.08" fill="none" stroke-linecap="round"/><path d="M130.7 243.9Q128.8 241.4 125.8 240.8" stroke="#8A7250" stroke-opacity="0.24" stroke-width="0.98" fill="none" stroke-linecap="round"/><path d="M231.6 52.3Q227.8 51.8 224.0 51.9" stroke="#7C855C" stroke-opacity="0.28" stroke-width="0.89" fill="none" stroke-linecap="round"/><path d="M80.0 446.6Q75.9 451.5 69.8 453.2" stroke="#5E5A44" stroke-opacity="0.27" stroke-width="1.06" fill="none" stroke-linecap="round"/><path d="M95.6 161.1Q97.8 156.2 102.2 153.3" stroke="#7C855C" stroke-opacity="0.29" stroke-width="1.13" fill="none" stroke-linecap="round"/><path d="M101.2 435.2Q101.7 431.2 103.5 427.6" stroke="#7C855C" stroke-opacity="0.15" stroke-width="0.51" fill="none" stroke-linecap="round"/><path d="M271.2 209.0Q267.5 206.8 264.1 204.2" stroke="#7C855C" stroke-opacity="0.26" stroke-width="1.04" fill="none" stroke-linecap="round"/><path d="M345.4 72.9Q342.1 73.5 341.5 76.8" stroke="#5E5A44" stroke-opacity="0.17" stroke-width="0.60" fill="none" stroke-linecap="round"/><path d="M491.7 210.2Q495.5 212.6 499.7 214.0" stroke="#9AA07A" stroke-opacity="0.34" stroke-width="1.14" fill="none" stroke-linecap="round"/><path d="M111.7 406.8Q116.7 412.9 121.5 419.2" stroke="#5E5A44" stroke-opacity="0.15" stroke-width="0.94" fill="none" stroke-linecap="round"/><path d="M482.2 111.1Q483.6 108.5 485.4 106.2" stroke="#9AA07A" stroke-opacity="0.36" stroke-width="1.14" fill="none" stroke-linecap="round"/><path d="M489.9 251.5Q486.2 249.6 482.5 247.6" stroke="#9AA07A" stroke-opacity="0.27" stroke-width="0.62" fill="none" stroke-linecap="round"/><path d="M259.2 480.7Q264.5 486.0 266.6 493.1" stroke="#5E5A44" stroke-opacity="0.14" stroke-width="0.72" fill="none" stroke-linecap="round"/><path d="M190.6 243.0Q187.2 241.9 186.3 238.5" stroke="#7C855C" stroke-opacity="0.31" stroke-width="0.78" fill="none" stroke-linecap="round"/><path d="M231.3 441.0Q230.0 436.1 228.8 431.2" stroke="#5E5A44" stroke-opacity="0.12" stroke-width="1.15" fill="none" stroke-linecap="round"/><path d="M445.5 131.0Q449.8 132.4 453.9 130.6" stroke="#7C855C" stroke-opacity="0.35" stroke-width="0.93" fill="none" stroke-linecap="round"/><path d="M227.5 93.8Q224.5 95.5 221.1 95.3" stroke="#5E5A44" stroke-opacity="0.34" stroke-width="0.87" fill="none" stroke-linecap="round"/><path d="M182.6 454.4Q184.7 458.4 188.6 460.6" stroke="#8A7250" stroke-opacity="0.25" stroke-width="0.90" fill="none" stroke-linecap="round"/><path d="M478.2 339.1Q481.8 338.8 483.6 335.7" stroke="#5E5A44" stroke-opacity="0.16" stroke-width="0.82" fill="none" stroke-linecap="round"/><path d="M438.3 417.2Q453.5 440.5 480.1 443.5" stroke="#9AA07A" stroke-opacity="0.17" stroke-width="0.82" fill="none" stroke-linecap="round"/><path d="M422.8 244.0Q406.8 218.2 382.7 218.4" stroke="#9AA07A" stroke-opacity="0.10" stroke-width="0.48" fill="none" stroke-linecap="round"/><path d="M217.8 307.4Q219.1 280.1 200.7 262.6" stroke="#7C855C" stroke-opacity="0.13" stroke-width="0.75" fill="none" stroke-linecap="round"/><path d="M275.5 165.7Q284.8 153.9 282.4 135.1" stroke="#9AA07A" stroke-opacity="0.09" stroke-width="0.81" fill="none" stroke-linecap="round"/><path d="M219.5 147.8Q208.3 135.3 192.1 136.0" stroke="#5E5A44" stroke-opacity="0.15" stroke-width="0.63" fill="none" stroke-linecap="round"/><path d="M372.1 357.7Q380.3 337.2 374.6 315.3" stroke="#8A7250" stroke-opacity="0.17" stroke-width="0.44" fill="none" stroke-linecap="round"/><path d="M65.4 186.4Q84.1 169.6 74.5 148.9" stroke="#7C855C" stroke-opacity="0.10" stroke-width="0.56" fill="none" stroke-linecap="round"/><path d="M121.5 391.2Q120.7 370.1 101.6 366.7" stroke="#7C855C" stroke-opacity="0.15" stroke-width="0.76" fill="none" stroke-linecap="round"/><path d="M233.5 496.3Q234.4 514.4 249.3 508.9" stroke="#8A7250" stroke-opacity="0.19" stroke-width="0.56" fill="none" stroke-linecap="round"/><path d="M370.3 16.3Q348.9 27.0 345.9 54.4" stroke="#8A7250" stroke-opacity="0.18" stroke-width="0.76" fill="none" stroke-linecap="round"/><path d="M17.8 277.7Q-5.9 273.0 -22.1 294.7" stroke="#7C855C" stroke-opacity="0.13" stroke-width="0.65" fill="none" stroke-linecap="round"/><path d="M382.4 206.5Q379.9 190.0 359.0 183.6" stroke="#5E5A44" stroke-opacity="0.16" stroke-width="0.72" fill="none" stroke-linecap="round"/><path d="M229.5 274.2Q214.9 261.4 202.9 276.6" stroke="#8A7250" stroke-opacity="0.15" stroke-width="0.51" fill="none" stroke-linecap="round"/><path d="M397.2 292.0Q400.4 322.3 422.7 337.3" stroke="#5E5A44" stroke-opacity="0.14" stroke-width="0.44" fill="none" stroke-linecap="round"/><path d="M475.7 213.5Q490.3 198.1 475.3 183.0" stroke="#8A7250" stroke-opacity="0.10" stroke-width="0.69" fill="none" stroke-linecap="round"/><path d="M289.4 56.9Q298.7 79.3 323.9 80.5" stroke="#9AA07A" stroke-opacity="0.17" stroke-width="0.82" fill="none" stroke-linecap="round"/><path d="M166.2 175.7Q172.7 199.0 194.0 201.2" stroke="#7C855C" stroke-opacity="0.12" stroke-width="0.44" fill="none" stroke-linecap="round"/><path d="M183.9 289.9Q209.8 291.3 229.5 278.3" stroke="#9AA07A" stroke-opacity="0.10" stroke-width="0.70" fill="none" stroke-linecap="round"/><path d="M380.9 62.4Q369.9 54.7 360.5 64.0" stroke="#9AA07A" stroke-opacity="0.15" stroke-width="0.77" fill="none" stroke-linecap="round"/><path d="M301.0 165.5Q312.2 156.1 309.8 137.2" stroke="#8A7250" stroke-opacity="0.12" stroke-width="0.45" fill="none" stroke-linecap="round"/><path d="M114.1 18.9Q119.6 30.6 130.7 27.6" stroke="#8A7250" stroke-opacity="0.17" stroke-width="0.41" fill="none" stroke-linecap="round"/><path d="M397.4 209.1Q390.2 224.3 401.1 237.8" stroke="#5E5A44" stroke-opacity="0.13" stroke-width="0.49" fill="none" stroke-linecap="round"/><ellipse cx="109.2" cy="341.0" rx="0.85" ry="0.95" transform="rotate(111 109.2 341.0)" fill="#9AA07A" fill-opacity="0.39"/><ellipse cx="58.0" cy="160.4" rx="0.76" ry="0.68" transform="rotate(116 58.0 160.4)" fill="#9AA07A" fill-opacity="0.17"/><ellipse cx="99.3" cy="172.3" rx="0.95" ry="0.91" transform="rotate(149 99.3 172.3)" fill="#7C855C" fill-opacity="0.22"/><ellipse cx="312.4" cy="433.5" rx="1.10" ry="1.28" transform="rotate(108 312.4 433.5)" fill="#5E5A44" fill-opacity="0.20"/><ellipse cx="52.3" cy="394.2" rx="0.55" ry="0.60" transform="rotate(164 52.3 394.2)" fill="#9AA07A" fill-opacity="0.22"/><ellipse cx="301.2" cy="75.8" rx="0.50" ry="0.44" transform="rotate(15 301.2 75.8)" fill="#9AA07A" fill-opacity="0.21"/><ellipse cx="60.6" cy="231.1" rx="0.47" ry="0.38" transform="rotate(2 60.6 231.1)" fill="#5E5A44" fill-opacity="0.27"/><ellipse cx="275.9" cy="40.9" rx="0.60" ry="0.58" transform="rotate(10 275.9 40.9)" fill="#5E5A44" fill-opacity="0.42"/><ellipse cx="164.3" cy="268.0" rx="0.70" ry="0.44" transform="rotate(142 164.3 268.0)" fill="#9AA07A" fill-opacity="0.38"/><ellipse cx="366.3" cy="151.4" rx="0.90" ry="0.69" transform="rotate(123 366.3 151.4)" fill="#7C855C" fill-opacity="0.16"/><ellipse cx="144.0" cy="195.6" rx="0.94" ry="0.54" transform="rotate(129 144.0 195.6)" fill="#9AA07A" fill-opacity="0.41"/><ellipse cx="15.4" cy="198.6" rx="0.78" ry="0.42" transform="rotate(173 15.4 198.6)" fill="#7C855C" fill-opacity="0.35"/><ellipse cx="436.2" cy="128.6" rx="0.79" ry="0.76" transform="rotate(75 436.2 128.6)" fill="#5E5A44" fill-opacity="0.36"/><ellipse cx="114.9" cy="37.0" rx="0.90" ry="1.09" transform="rotate(115 114.9 37.0)" fill="#9AA07A" fill-opacity="0.13"/><ellipse cx="214.2" cy="105.0" rx="1.02" ry="1.02" transform="rotate(58 214.2 105.0)" fill="#5E5A44" fill-opacity="0.24"/><ellipse cx="431.8" cy="56.8" rx="0.89" ry="0.89" transform="rotate(96 431.8 56.8)" fill="#8A7250" fill-opacity="0.39"/><ellipse cx="212.3" cy="123.8" rx="0.77" ry="0.65" transform="rotate(23 212.3 123.8)" fill="#7C855C" fill-opacity="0.30"/><ellipse cx="296.3" cy="53.8" rx="0.90" ry="0.52" transform="rotate(79 296.3 53.8)" fill="#9AA07A" fill-opacity="0.39"/><ellipse cx="402.6" cy="284.9" rx="0.64" ry="0.70" transform="rotate(137 402.6 284.9)" fill="#7C855C" fill-opacity="0.13"/><ellipse cx="95.6" cy="240.5" rx="0.67" ry="0.88" transform="rotate(120 95.6 240.5)" fill="#9AA07A" fill-opacity="0.27"/><ellipse cx="485.0" cy="64.2" rx="0.80" ry="0.99" transform="rotate(95 485.0 64.2)" fill="#7C855C" fill-opacity="0.32"/><ellipse cx="400.9" cy="79.3" rx="1.05" ry="0.98" transform="rotate(131 400.9 79.3)" fill="#5E5A44" fill-opacity="0.33"/><ellipse cx="452.5" cy="159.4" rx="1.10" ry="1.04" transform="rotate(40 452.5 159.4)" fill="#7C855C" fill-opacity="0.27"/><ellipse cx="467.5" cy="338.5" rx="0.76" ry="0.86" transform="rotate(102 467.5 338.5)" fill="#5E5A44" fill-opacity="0.37"/><ellipse cx="425.3" cy="372.9" rx="0.56" ry="0.65" transform="rotate(30 425.3 372.9)" fill="#9AA07A" fill-opacity="0.15"/><ellipse cx="204.0" cy="442.9" rx="0.60" ry="0.80" transform="rotate(147 204.0 442.9)" fill="#8A7250" fill-opacity="0.19"/><ellipse cx="58.5" cy="281.0" rx="0.89" ry="0.72" transform="rotate(34 58.5 281.0)" fill="#5E5A44" fill-opacity="0.13"/><ellipse cx="205.8" cy="430.6" rx="0.78" ry="0.83" transform="rotate(72 205.8 430.6)" fill="#8A7250" fill-opacity="0.16"/><ellipse cx="126.3" cy="148.9" rx="0.36" ry="0.19" transform="rotate(178 126.3 148.9)" fill="#8A7250" fill-opacity="0.23"/><ellipse cx="240.1" cy="50.1" rx="0.71" ry="0.89" transform="rotate(74 240.1 50.1)" fill="#8A7250" fill-opacity="0.17"/><ellipse cx="21.0" cy="75.9" rx="0.70" ry="0.59" transform="rotate(118 21.0 75.9)" fill="#7C855C" fill-opacity="0.13"/><ellipse cx="494.5" cy="339.7" rx="0.61" ry="0.47" transform="rotate(75 494.5 339.7)" fill="#7C855C" fill-opacity="0.27"/><ellipse cx="66.9" cy="247.6" rx="0.53" ry="0.38" transform="rotate(123 66.9 247.6)" fill="#9AA07A" fill-opacity="0.26"/><ellipse cx="283.0" cy="64.8" rx="0.88" ry="1.08" transform="rotate(162 283.0 64.8)" fill="#5E5A44" fill-opacity="0.37"/><ellipse cx="247.0" cy="176.9" rx="1.31" ry="0.98" transform="rotate(179 247.0 176.9)" fill="#5E5A44" fill-opacity="0.21"/><ellipse cx="149.4" cy="147.9" rx="0.79" ry="0.83" transform="rotate(50 149.4 147.9)" fill="#7C855C" fill-opacity="0.16"/><ellipse cx="42.6" cy="69.8" rx="0.91" ry="0.88" transform="rotate(61 42.6 69.8)" fill="#8A7250" fill-opacity="0.32"/><ellipse cx="345.6" cy="48.9" rx="1.11" ry="1.47" transform="rotate(177 345.6 48.9)" fill="#5E5A44" fill-opacity="0.19"/><ellipse cx="261.6" cy="45.6" rx="1.18" ry="1.25" transform="rotate(151 261.6 45.6)" fill="#5E5A44" fill-opacity="0.21"/><ellipse cx="119.5" cy="40.4" rx="0.61" ry="0.61" transform="rotate(65 119.5 40.4)" fill="#9AA07A" fill-opacity="0.39"/><ellipse cx="321.3" cy="302.5" rx="0.99" ry="1.31" transform="rotate(166 321.3 302.5)" fill="#8A7250" fill-opacity="0.37"/><ellipse cx="384.0" cy="20.5" rx="0.49" ry="0.46" transform="rotate(170 384.0 20.5)" fill="#8A7250" fill-opacity="0.24"/><ellipse cx="283.2" cy="99.6" rx="1.17" ry="0.78" transform="rotate(47 283.2 99.6)" fill="#8A7250" fill-opacity="0.18"/><ellipse cx="209.6" cy="244.8" rx="0.69" ry="0.39" transform="rotate(63 209.6 244.8)" fill="#8A7250" fill-opacity="0.17"/><ellipse cx="225.8" cy="500.0" rx="0.56" ry="0.50" transform="rotate(45 225.8 500.0)" fill="#5E5A44" fill-opacity="0.14"/><ellipse cx="87.2" cy="457.6" rx="1.10" ry="0.84" transform="rotate(123 87.2 457.6)" fill="#8A7250" fill-opacity="0.24"/><ellipse cx="312.8" cy="189.3" rx="0.94" ry="0.83" transform="rotate(151 312.8 189.3)" fill="#9AA07A" fill-opacity="0.40"/><ellipse cx="51.2" cy="203.5" rx="1.28" ry="1.07" transform="rotate(29 51.2 203.5)" fill="#7C855C" fill-opacity="0.36"/><ellipse cx="487.5" cy="283.6" rx="0.94" ry="0.59" transform="rotate(148 487.5 283.6)" fill="#7C855C" fill-opacity="0.42"/><ellipse cx="76.5" cy="482.3" rx="1.02" ry="1.11" transform="rotate(27 76.5 482.3)" fill="#9AA07A" fill-opacity="0.29"/><ellipse cx="156.3" cy="451.2" rx="1.21" ry="1.18" transform="rotate(172 156.3 451.2)" fill="#5E5A44" fill-opacity="0.38"/><ellipse cx="469.4" cy="31.8" rx="1.22" ry="1.18" transform="rotate(43 469.4 31.8)" fill="#9AA07A" fill-opacity="0.35"/><ellipse cx="390.2" cy="21.0" rx="0.58" ry="0.32" transform="rotate(149 390.2 21.0)" fill="#7C855C" fill-opacity="0.37"/><ellipse cx="344.5" cy="499.3" rx="0.62" ry="0.61" transform="rotate(84 344.5 499.3)" fill="#9AA07A" fill-opacity="0.31"/><ellipse cx="411.1" cy="44.4" rx="0.42" ry="0.54" transform="rotate(54 411.1 44.4)" fill="#7C855C" fill-opacity="0.23"/><ellipse cx="59.0" cy="143.4" rx="1.25" ry="1.59" transform="rotate(129 59.0 143.4)" fill="#9AA07A" fill-opacity="0.12"/><ellipse cx="504.1" cy="118.6" rx="0.60" ry="0.50" transform="rotate(91 504.1 118.6)" fill="#5E5A44" fill-opacity="0.36"/><ellipse cx="398.9" cy="34.5" rx="0.65" ry="0.69" transform="rotate(108 398.9 34.5)" fill="#8A7250" fill-opacity="0.34"/><ellipse cx="134.1" cy="325.2" rx="1.01" ry="1.18" transform="rotate(167 134.1 325.2)" fill="#8A7250" fill-opacity="0.16"/><ellipse cx="233.4" cy="31.1" rx="0.63" ry="0.47" transform="rotate(172 233.4 31.1)" fill="#9AA07A" fill-opacity="0.25"/><ellipse cx="322.6" cy="345.8" rx="1.36" ry="1.03" transform="rotate(179 322.6 345.8)" fill="#7C855C" fill-opacity="0.39"/><ellipse cx="492.5" cy="207.6" rx="0.70" ry="0.97" transform="rotate(33 492.5 207.6)" fill="#9AA07A" fill-opacity="0.20"/><ellipse cx="152.7" cy="276.7" rx="1.33" ry="1.19" transform="rotate(39 152.7 276.7)" fill="#5E5A44" fill-opacity="0.36"/><ellipse cx="45.4" cy="351.8" rx="0.95" ry="1.07" transform="rotate(23 45.4 351.8)" fill="#9AA07A" fill-opacity="0.16"/><ellipse cx="288.7" cy="471.8" rx="0.66" ry="0.57" transform="rotate(18 288.7 471.8)" fill="#9AA07A" fill-opacity="0.16"/><ellipse cx="138.1" cy="275.8" rx="1.37" ry="1.24" transform="rotate(177 138.1 275.8)" fill="#9AA07A" fill-opacity="0.37"/><ellipse cx="298.9" cy="194.6" rx="1.12" ry="0.96" transform="rotate(26 298.9 194.6)" fill="#5E5A44" fill-opacity="0.24"/><ellipse cx="184.0" cy="368.6" rx="0.99" ry="0.51" transform="rotate(86 184.0 368.6)" fill="#9AA07A" fill-opacity="0.12"/><ellipse cx="356.9" cy="184.7" rx="1.13" ry="1.53" transform="rotate(34 356.9 184.7)" fill="#9AA07A" fill-opacity="0.31"/><ellipse cx="314.5" cy="157.3" rx="0.63" ry="0.86" transform="rotate(62 314.5 157.3)" fill="#8A7250" fill-opacity="0.36"/><ellipse cx="438.1" cy="122.3" rx="1.39" ry="1.39" transform="rotate(94 438.1 122.3)" fill="#7C855C" fill-opacity="0.21"/><ellipse cx="194.3" cy="173.7" rx="0.52" ry="0.56" transform="rotate(137 194.3 173.7)" fill="#9AA07A" fill-opacity="0.20"/><ellipse cx="271.8" cy="213.3" rx="1.36" ry="1.78" transform="rotate(66 271.8 213.3)" fill="#9AA07A" fill-opacity="0.14"/><ellipse cx="197.0" cy="108.7" rx="1.13" ry="0.57" transform="rotate(81 197.0 108.7)" fill="#8A7250" fill-opacity="0.25"/><ellipse cx="328.9" cy="64.5" rx="0.41" ry="0.57" transform="rotate(103 328.9 64.5)" fill="#5E5A44" fill-opacity="0.27"/><ellipse cx="299.0" cy="266.2" rx="0.52" ry="0.43" transform="rotate(163 299.0 266.2)" fill="#7C855C" fill-opacity="0.27"/><ellipse cx="149.0" cy="503.5" rx="1.12" ry="0.77" transform="rotate(24 149.0 503.5)" fill="#8A7250" fill-opacity="0.40"/><ellipse cx="118.0" cy="303.9" rx="0.82" ry="0.72" transform="rotate(116 118.0 303.9)" fill="#5E5A44" fill-opacity="0.25"/><ellipse cx="497.1" cy="160.6" rx="1.31" ry="1.61" transform="rotate(129 497.1 160.6)" fill="#7C855C" fill-opacity="0.24"/><ellipse cx="418.3" cy="377.8" rx="1.23" ry="0.67" transform="rotate(84 418.3 377.8)" fill="#8A7250" fill-opacity="0.31"/><ellipse cx="237.1" cy="474.6" rx="1.26" ry="1.31" transform="rotate(131 237.1 474.6)" fill="#5E5A44" fill-opacity="0.29"/><ellipse cx="252.6" cy="206.1" rx="0.52" ry="0.60" transform="rotate(120 252.6 206.1)" fill="#8A7250" fill-opacity="0.28"/><ellipse cx="455.4" cy="103.5" rx="0.60" ry="0.37" transform="rotate(27 455.4 103.5)" fill="#7C855C" fill-opacity="0.16"/><ellipse cx="393.8" cy="283.0" rx="0.92" ry="1.22" transform="rotate(79 393.8 283.0)" fill="#5E5A44" fill-opacity="0.31"/><ellipse cx="194.9" cy="240.4" rx="0.56" ry="0.73" transform="rotate(79 194.9 240.4)" fill="#7C855C" fill-opacity="0.27"/><ellipse cx="27.3" cy="45.4" rx="1.10" ry="0.96" transform="rotate(148 27.3 45.4)" fill="#9AA07A" fill-opacity="0.29"/><ellipse cx="349.1" cy="102.7" rx="0.72" ry="0.60" transform="rotate(79 349.1 102.7)" fill="#7C855C" fill-opacity="0.20"/><ellipse cx="502.4" cy="295.5" rx="0.56" ry="0.66" transform="rotate(86 502.4 295.5)" fill="#5E5A44" fill-opacity="0.40"/><ellipse cx="188.4" cy="434.2" rx="1.12" ry="0.64" transform="rotate(2 188.4 434.2)" fill="#7C855C" fill-opacity="0.26"/><ellipse cx="358.2" cy="277.5" rx="0.86" ry="0.48" transform="rotate(46 358.2 277.5)" fill="#5E5A44" fill-opacity="0.25"/><ellipse cx="24.9" cy="445.1" rx="0.55" ry="0.59" transform="rotate(136 24.9 445.1)" fill="#7C855C" fill-opacity="0.39"/><ellipse cx="200.5" cy="496.5" rx="0.83" ry="0.52" transform="rotate(21 200.5 496.5)" fill="#9AA07A" fill-opacity="0.20"/><ellipse cx="24.8" cy="16.5" rx="0.44" ry="0.47" transform="rotate(139 24.8 16.5)" fill="#7C855C" fill-opacity="0.18"/><ellipse cx="266.0" cy="318.9" rx="0.49" ry="0.60" transform="rotate(38 266.0 318.9)" fill="#7C855C" fill-opacity="0.14"/><ellipse cx="469.6" cy="383.7" rx="0.51" ry="0.31" transform="rotate(37 469.6 383.7)" fill="#7C855C" fill-opacity="0.20"/><ellipse cx="137.0" cy="133.6" rx="1.21" ry="0.65" transform="rotate(128 137.0 133.6)" fill="#5E5A44" fill-opacity="0.37"/><ellipse cx="72.3" cy="31.6" rx="1.22" ry="1.39" transform="rotate(154 72.3 31.6)" fill="#8A7250" fill-opacity="0.13"/><ellipse cx="352.4" cy="44.9" rx="0.69" ry="0.42" transform="rotate(82 352.4 44.9)" fill="#5E5A44" fill-opacity="0.29"/><ellipse cx="266.4" cy="402.9" rx="1.02" ry="0.59" transform="rotate(5 266.4 402.9)" fill="#8A7250" fill-opacity="0.31"/><ellipse cx="486.9" cy="83.3" rx="1.17" ry="1.47" transform="rotate(88 486.9 83.3)" fill="#7C855C" fill-opacity="0.27"/><ellipse cx="403.6" cy="378.2" rx="1.23" ry="1.07" transform="rotate(122 403.6 378.2)" fill="#5E5A44" fill-opacity="0.23"/><ellipse cx="420.8" cy="210.4" rx="0.92" ry="0.92" transform="rotate(26 420.8 210.4)" fill="#9AA07A" fill-opacity="0.18"/><ellipse cx="367.7" cy="314.6" rx="0.59" ry="0.47" transform="rotate(45 367.7 314.6)" fill="#7C855C" fill-opacity="0.39"/><ellipse cx="189.1" cy="28.8" rx="1.36" ry="1.50" transform="rotate(176 189.1 28.8)" fill="#5E5A44" fill-opacity="0.28"/><ellipse cx="390.7" cy="436.7" rx="0.69" ry="0.37" transform="rotate(98 390.7 436.7)" fill="#7C855C" fill-opacity="0.25"/><ellipse cx="342.0" cy="179.4" rx="0.80" ry="0.95" transform="rotate(21 342.0 179.4)" fill="#5E5A44" fill-opacity="0.20"/><ellipse cx="406.9" cy="307.7" rx="0.42" ry="0.30" transform="rotate(98 406.9 307.7)" fill="#8A7250" fill-opacity="0.29"/><ellipse cx="261.7" cy="394.4" rx="0.70" ry="0.53" transform="rotate(149 261.7 394.4)" fill="#7C855C" fill-opacity="0.30"/><ellipse cx="81.1" cy="228.4" rx="0.53" ry="0.45" transform="rotate(153 81.1 228.4)" fill="#5E5A44" fill-opacity="0.12"/><ellipse cx="164.0" cy="340.0" rx="1.07" ry="1.17" transform="rotate(35 164.0 340.0)" fill="#5E5A44" fill-opacity="0.38"/></svg>